<?xml version="1.0" encoding="iso-8859-1"?>
<!-- Uploaded to: SVG Repo, www.svgrepo.com, Generator: SVG Repo Mixer Tools -->
<svg height="800px" width="800px" version="1.1" id="Capa_1" xmlns="http://www.w3.org/2000/svg" xmlns:xlink="http://www.w3.org/1999/xlink" 
	 viewBox="0 0 20.465 20.465" xml:space="preserve">
<g>
	<g id="c90_rewind">
		<path style="fill:#ff8a3c" d="M11.354,1.373c-0.141-0.069-0.304-0.049-0.425,0.044L0.152,9.918C0.059,9.996,0,10.11,0,10.231
			s0.059,0.24,0.152,0.316l10.776,8.5c0.073,0.057,0.163,0.086,0.249,0.086l0.176-0.04c0.138-0.064,0.225-0.205,0.225-0.36v-17
			C11.578,1.582,11.491,1.438,11.354,1.373z"/>
		<path style="fill:#ff8a3c;" d="M20.242,1.373c-0.142-0.069-0.305-0.049-0.426,0.044L9.039,9.918
			c-0.094,0.078-0.152,0.192-0.152,0.313s0.059,0.24,0.152,0.316l10.777,8.5c0.072,0.057,0.162,0.086,0.248,0.086l0.178-0.04
			c0.137-0.064,0.223-0.205,0.223-0.36v-17C20.465,1.582,20.379,1.438,20.242,1.373z"/>
	</g>
</g>
</svg>